<svg width="100" height="86" viewBox="0 0 100 86" fill="none" xmlns="http://www.w3.org/2000/svg">
  <rect x="10" y="4" width="80" height="18" rx="4" fill="#1a1a1a" stroke="#3b82f6" stroke-width="0.8" stroke-opacity="0.4"/>
  <rect x="10" y="28" width="80" height="18" rx="4" fill="#1a1a1a" stroke="#3b82f6" stroke-width="0.8" stroke-opacity="0.25"/>
  <rect x="10" y="52" width="80" height="18" rx="4" fill="#1a1a1a" stroke="#3b82f6" stroke-width="0.8" stroke-opacity="0.15"/>
  <circle cx="22" cy="13" r="4" fill="#3b82f6" fill-opacity="0.3"/>
  <circle cx="22" cy="37" r="4" fill="#3b82f6" fill-opacity="0.2"/>
  <circle cx="22" cy="61" r="4" fill="#3b82f6" fill-opacity="0.12"/>
  <rect x="32" y="10" width="30" height="3" rx="1.5" fill="white" fill-opacity="0.28"/>
  <rect x="32" y="16" width="20" height="2" rx="1" fill="white" fill-opacity="0.1"/>
  <rect x="32" y="34" width="30" height="3" rx="1.5" fill="white" fill-opacity="0.22"/>
  <rect x="32" y="40" width="20" height="2" rx="1" fill="white" fill-opacity="0.08"/>
  <rect x="32" y="58" width="30" height="3" rx="1.5" fill="white" fill-opacity="0.16"/>
  <rect x="32" y="64" width="20" height="2" rx="1" fill="white" fill-opacity="0.06"/>
  <path d="M75 10 L83 13 L75 16" stroke="#3b82f6" stroke-width="1" fill="none" stroke-opacity="0.6"/>
  <path d="M75 34 L83 37 L75 40" stroke="#3b82f6" stroke-width="1" fill="none" stroke-opacity="0.4"/>
  <path d="M75 58 L83 61 L75 64" stroke="#3b82f6" stroke-width="1" fill="none" stroke-opacity="0.25"/>
</svg>